<svg width="839" height="793" viewBox="0 0 839 793" fill="none" xmlns="http://www.w3.org/2000/svg">
<path fill-rule="evenodd" clip-rule="evenodd" d="M350.362 162.967L353.29 162.728L356.176 162.418L359.021 162.038L361.831 161.588L364.608 161.072L367.356 160.49L370.08 159.847L372.784 159.146L375.47 158.391L378.143 157.587L380.807 156.739L383.464 155.854L386.119 154.937L388.774 153.995L391.432 153.035L394.096 152.063L396.768 151.088L399.451 150.115L402.145 149.153L404.852 148.208L407.574 147.287L410.31 146.397L413.061 145.542L415.828 144.728L418.61 143.96L421.406 143.243L424.217 142.583L427.041 141.983L429.877 141.448L432.724 140.983L435.581 140.591L438.447 140.278L441.318 140.05L444.195 139.913L447.073 139.87L449.952 139.929L452.828 140.093L455.698 140.368L458.56 140.757L461.411 141.263L464.246 141.89L467.064 142.638L469.861 143.511L472.632 144.507L475.376 145.627L478.088 146.87L480.766 148.234L483.407 149.716L486.007 151.314L488.565 153.023L491.078 154.839L493.544 156.756L495.961 158.768L498.329 160.87L500.645 163.054L502.909 165.312L505.121 167.639L507.28 170.024L509.388 172.461L511.445 174.941L513.452 177.455L515.41 179.995L517.323 182.551L519.191 185.117L521.017 187.682L522.805 190.24L524.557 192.782L526.277 195.299L527.968 197.785L529.635 200.233L531.282 202.636L532.912 204.987L534.531 207.281L536.142 209.512L537.751 211.675L539.362 213.767L540.979 215.783L542.607 217.72L544.25 219.575L545.914 221.346L547.602 223.032L549.319 224.632L551.068 226.145L552.853 227.571L554.678 228.91L556.547 230.164L558.462 231.335L560.426 232.424L562.442 233.433L564.512 234.366L566.638 235.226L568.822 236.016L571.065 236.74L573.369 237.402L575.733 238.007L578.159 238.558L580.647 239.061L583.196 239.521L585.807 239.942L588.478 240.329L591.209 240.688L593.999 241.024L596.846 241.341L599.749 241.644L602.706 241.938L605.716 242.229L608.776 242.52L611.884 242.817L615.038 243.123L618.236 243.443L621.476 243.781L624.754 244.141L628.069 244.526L631.418 244.94L634.798 245.386L638.206 245.869L641.64 246.39L645.096 246.953L648.572 247.561L652.064 248.217L655.569 248.923L659.083 249.682L662.602 250.498L666.122 251.373L669.637 252.311L673.142 253.313L676.633 254.383L680.104 255.524L683.548 256.738L686.961 258.027L690.335 259.393L693.666 260.839L696.945 262.367L700.168 263.977L703.329 265.67L706.422 267.446L709.443 269.307L712.385 271.251L715.245 273.278L718.019 275.387L720.703 277.577L723.294 279.845L725.788 282.19L728.185 284.609L730.482 287.1L732.678 289.66L734.773 292.286L736.765 294.974L738.656 297.722L740.445 300.527L742.134 303.383L743.724 306.289L745.216 309.241L746.613 312.235L747.917 315.267L749.131 318.335L750.256 321.435L751.296 324.564L752.255 327.719L753.134 330.897L753.937 334.095L754.668 337.31L755.329 340.541L755.923 343.784L756.455 347.038L756.926 350.301L757.34 353.571L757.699 356.846L758.007 360.125L758.264 363.406L758.475 366.689L758.641 369.972L758.763 373.254L758.844 376.534L758.885 379.812L758.886 383.087L758.851 386.358L758.778 389.626L758.668 392.888L758.523 396.146L758.342 399.398L758.125 402.644L757.873 405.884L757.584 409.117L757.259 412.343L756.896 415.561L756.495 418.771L756.056 421.973L755.577 425.166L755.057 428.349L754.496 431.522L753.892 434.683L753.243 437.833L752.549 440.971L751.809 444.095L751.021 447.204L750.184 450.298L749.297 453.376L748.359 456.437L747.368 459.479L746.324 462.501L745.224 465.502L744.07 468.48L742.858 471.435L741.589 474.365L740.262 477.268L738.876 480.143L737.429 482.989L735.923 485.803L734.355 488.585L732.727 491.333L731.037 494.045L729.285 496.72L727.472 499.356L725.597 501.951L723.662 504.505L721.665 507.015L719.61 509.48L717.495 511.899L715.324 514.271L713.096 516.595L710.816 518.87L708.484 521.095L706.105 523.271L703.68 525.396L701.215 527.472L698.712 529.498L696.174 531.475L693.604 533.402L691.005 535.281L688.38 537.112L685.732 538.895L683.063 540.631L680.378 542.321L677.678 543.966L674.968 545.568L672.251 547.128L669.529 548.648L666.805 550.128L664.083 551.572L661.366 552.98L658.655 554.354L655.955 555.698L653.266 557.011L650.593 558.298L647.936 559.56L645.299 560.799L642.683 562.017L640.09 563.218L637.522 564.403L634.981 565.575L632.469 566.736L629.986 567.889L627.535 569.036L625.115 570.181L622.73 571.326L620.379 572.473L618.063 573.625L615.784 574.785L613.542 575.955L611.337 577.139L609.169 578.338L607.04 579.557L604.948 580.796L602.894 582.059L600.878 583.348L598.899 584.665L596.956 586.014L595.049 587.395L593.177 588.811L591.338 590.263L589.532 591.754L587.756 593.285L586.01 594.858L584.292 596.472L582.598 598.129L580.929 599.83L579.28 601.575L577.65 603.364L576.036 605.197L574.435 607.072L572.845 608.99L571.262 610.949L569.685 612.948L568.109 614.984L566.532 617.056L564.95 619.162L563.362 621.297L561.762 623.461L560.149 625.649L558.52 627.857L556.871 630.083L555.2 632.321L553.504 634.569L551.781 636.821L550.028 639.073L548.243 641.321L546.424 643.56L544.57 645.785L542.678 647.992L540.747 650.176L538.776 652.333L536.765 654.458L534.712 656.547L532.617 658.596L530.48 660.601L528.301 662.559L526.08 664.467L523.818 666.32L521.516 668.118L519.173 669.858L516.792 671.538L514.374 673.155L511.919 674.711L509.43 676.203L506.908 677.632L504.354 678.997L501.771 680.299L499.159 681.539L496.521 682.717L493.858 683.834L491.171 684.893L488.463 685.893L485.735 686.836L482.988 687.723L480.223 688.555L477.442 689.331L474.645 690.051L471.834 690.712L469.009 691.313L466.173 691.848L463.325 692.314L460.467 692.708L457.602 693.024L454.73 693.259L451.853 693.407L448.974 693.466L446.094 693.43L443.216 693.296L440.343 693.061L437.477 692.719L434.622 692.269L431.779 691.708L428.952 691.032L426.145 690.241L423.36 689.331L420.601 688.303L417.871 687.155L415.173 685.887L412.511 684.5L409.886 682.994L407.304 681.372L404.766 679.636L402.274 677.787L399.833 675.831L397.443 673.769L395.107 671.608L392.827 669.352L390.604 667.006L388.44 664.577L386.334 662.071L384.288 659.495L382.302 656.857L380.375 654.163L378.507 651.423L376.696 648.645L374.941 645.836L373.24 643.007L371.591 640.164L369.991 637.319L368.436 634.478L366.923 631.652L365.449 628.849L364.008 626.077L362.597 623.346L361.21 620.662L359.842 618.035L358.488 615.471L357.142 612.978L355.799 610.562L354.452 608.23L353.095 605.987L351.722 603.838L350.327 601.789L348.904 599.842L347.446 598.002L345.948 596.272L344.404 594.653L342.807 593.147L341.152 591.755L339.434 590.477L337.647 589.313L335.787 588.262L333.849 587.322L331.828 586.492L329.722 585.768L327.526 585.148L325.237 584.628L322.853 584.203L320.37 583.869L317.788 583.621L315.104 583.454L312.317 583.363L309.427 583.341L306.433 583.383L303.335 583.482L300.134 583.632L296.83 583.826L293.424 584.058L289.918 584.321L286.313 584.609L282.61 584.915L278.814 585.233L274.925 585.556L270.947 585.878L266.882 586.193L262.734 586.494L258.507 586.776L254.203 587.031L249.828 587.256L245.385 587.443L240.88 587.587L236.317 587.681L231.702 587.721L227.042 587.701L222.343 587.614L217.613 587.454L212.861 587.215L208.094 586.892L203.323 586.478L198.559 585.967L193.812 585.353L189.094 584.631L184.416 583.796L179.788 582.844L175.222 581.771L170.729 580.574L166.32 579.25L162.006 577.797L157.797 576.214L153.704 574.5L149.738 572.653L145.909 570.675L142.227 568.565L138.702 566.325L135.344 563.955L132.162 561.459L129.165 558.838L126.361 556.095L123.758 553.234L121.363 550.259L119.184 547.174L117.226 543.984L115.494 540.695L113.993 537.311L112.727 533.84L111.7 530.287L110.912 526.659L110.366 522.964L110.062 519.208L109.999 515.399L110.176 511.544L110.59 507.651L111.237 503.728L112.114 499.783L113.214 495.824L114.532 491.858L116.06 487.892L117.79 483.935L119.713 479.993L121.819 476.074L124.097 472.184L126.535 468.329L129.122 464.515L131.844 460.748L134.688 457.033L137.64 453.374L140.685 449.775L143.809 446.24L146.995 442.772L150.23 439.373L153.496 436.044L156.778 432.786L160.06 429.601L163.326 426.487L166.562 423.445L169.751 420.472L172.878 417.566L175.929 414.725L178.89 411.945L181.746 409.224L184.485 406.555L187.095 403.935L189.564 401.359L191.881 398.82L194.037 396.313L196.023 393.831L197.83 391.368L199.453 388.917L200.885 386.471L202.123 384.022L203.162 381.564L204 379.09L204.637 376.592L205.073 374.063L205.309 371.498L205.348 368.888L205.194 366.228L204.852 363.513L204.327 360.736L203.627 357.893L202.761 354.979L201.737 351.991L200.566 348.925L199.258 345.777L197.825 342.547L196.28 339.232L194.635 335.832L192.904 332.347L191.1 328.776L189.238 325.122L187.331 321.385L185.392 317.569L183.436 313.674L181.475 309.706L179.523 305.667L177.591 301.56L175.69 297.391L173.833 293.163L172.032 288.882L170.296 284.554L168.638 280.184L167.067 275.778L165.593 271.344L164.229 266.889L162.983 262.42L161.865 257.945L160.886 253.474L160.055 249.015L159.379 244.577L158.867 240.17L158.525 235.802L158.361 231.483L158.379 227.222L158.583 223.027L158.978 218.909L159.565 214.874L160.348 210.932L161.326 207.091L162.5 203.357L163.869 199.738L165.43 196.24L167.183 192.87L169.123 189.633L171.246 186.534L173.548 183.576L176.023 180.765L178.666 178.103L181.469 175.592L184.426 173.234L187.529 171.031L190.771 168.982L194.144 167.089L197.638 165.349L201.246 163.763L204.958 162.327L208.765 161.039L212.659 159.897L216.63 158.897L220.669 158.034L224.766 157.304L228.914 156.702L233.104 156.222L237.325 155.858L241.571 155.605L245.833 155.455L250.103 155.401L254.373 155.436L258.636 155.553L262.886 155.744L267.116 156.002L271.319 156.317L275.49 156.683L279.623 157.092L283.715 157.534L287.76 158.003L291.754 158.489L295.694 158.986L299.578 159.486L303.402 159.981L307.165 160.464L310.864 160.927L314.5 161.365L318.07 161.771L321.576 162.138L325.016 162.462L328.393 162.737L331.706 162.958L334.958 163.122L338.149 163.224L341.283 163.262L344.361 163.233L347.386 163.135L350.362 162.967Z" fill="#2484FF"/>
<g filter="url(#filter0_d_9_1313)">
<g clip-path="url(#clip0_9_1313)">
<path d="M195 234C195 227.373 200.373 222 207 222H702C708.628 222 714 227.373 714 234V532C714 538.627 708.628 544 702 544H207C200.373 544 195 538.627 195 532V234Z" fill="white"/>
<rect x="195" y="222" width="519" height="322" fill="white"/>
<path d="M411.132 384L406.932 379.656L411.048 375.672H412.512L408.072 379.944V379.32L412.632 384H411.132ZM405.984 384V375.672H407.112V384H405.984ZM413.765 384V375.672H414.893V384H413.765ZM414.533 384V382.968H419.309V384H414.533ZM414.533 380.232V379.248H418.913V380.232H414.533ZM414.533 376.704V375.672H419.249V376.704H414.533ZM423.319 380.616L420.043 375.672H421.351L423.991 379.716H423.403L426.055 375.672H427.339L424.039 380.616H423.319ZM423.127 384V379.872H424.255V384H423.127ZM427.448 381.456V380.436H431.396V381.456H427.448ZM434.472 384.12C433.928 384.12 433.432 384.02 432.984 383.82C432.544 383.612 432.172 383.312 431.868 382.92L432.636 382.152C432.82 382.432 433.072 382.656 433.392 382.824C433.712 382.984 434.068 383.064 434.46 383.064C434.828 383.064 435.144 382.996 435.408 382.86C435.68 382.716 435.892 382.516 436.044 382.26C436.204 382.004 436.284 381.708 436.284 381.372C436.284 381.028 436.204 380.732 436.044 380.484C435.892 380.228 435.676 380.032 435.396 379.896C435.116 379.76 434.784 379.692 434.4 379.692C434.256 379.692 434.112 379.704 433.968 379.728C433.824 379.744 433.684 379.772 433.548 379.812L434.028 379.164C434.18 379.092 434.344 379.036 434.52 378.996C434.696 378.956 434.872 378.936 435.048 378.936C435.496 378.936 435.896 379.04 436.248 379.248C436.608 379.456 436.892 379.748 437.1 380.124C437.316 380.5 437.424 380.936 437.424 381.432C437.424 381.96 437.296 382.428 437.04 382.836C436.792 383.236 436.448 383.552 436.008 383.784C435.568 384.008 435.056 384.12 434.472 384.12ZM433.548 379.812V379.128L435.984 376.356L437.328 376.344L434.82 379.188L433.548 379.812ZM432.264 376.68V375.672H437.328V376.344L436.344 376.68H432.264Z" fill="#3F3F3F"/>
<path d="M411.132 419L406.932 414.656L411.048 410.672H412.512L408.072 414.944V414.32L412.632 419H411.132ZM405.984 419V410.672H407.112V419H405.984ZM413.765 419V410.672H414.893V419H413.765ZM414.533 419V417.968H419.309V419H414.533ZM414.533 415.232V414.248H418.913V415.232H414.533ZM414.533 411.704V410.672H419.249V411.704H414.533ZM423.319 415.616L420.043 410.672H421.351L423.991 414.716H423.403L426.055 410.672H427.339L424.039 415.616H423.319ZM423.127 419V414.872H424.255V419H423.127ZM427.448 416.456V415.436H431.396V416.456H427.448ZM432.584 416.132L435.62 410.672H436.892L433.796 416.132H432.584ZM432.584 416.828V416.132L433.064 415.82H438.968V416.828H432.584ZM436.652 419V413.492H437.768V419H436.652Z" fill="#3F3F3F"/>
<path d="M411.132 453L406.932 448.656L411.048 444.672H412.512L408.072 448.944V448.32L412.632 453H411.132ZM405.984 453V444.672H407.112V453H405.984ZM413.765 453V444.672H414.893V453H413.765ZM414.533 453V451.968H419.309V453H414.533ZM414.533 449.232V448.248H418.913V449.232H414.533ZM414.533 445.704V444.672H419.249V445.704H414.533ZM423.319 449.616L420.043 444.672H421.351L423.991 448.716H423.403L426.055 444.672H427.339L424.039 449.616H423.319ZM423.127 453V448.872H424.255V453H423.127ZM427.448 450.456V449.436H431.396V450.456H427.448ZM435.164 453.12C434.596 453.12 434.088 453.02 433.64 452.82C433.2 452.612 432.828 452.312 432.524 451.92L433.292 451.152C433.476 451.432 433.728 451.656 434.048 451.824C434.376 451.984 434.74 452.064 435.14 452.064C435.516 452.064 435.844 451.992 436.124 451.848C436.412 451.704 436.636 451.504 436.796 451.248C436.964 450.984 437.048 450.672 437.048 450.312C437.048 449.944 436.968 449.632 436.808 449.376C436.648 449.12 436.432 448.928 436.16 448.8C435.896 448.664 435.604 448.596 435.284 448.596C434.956 448.596 434.656 448.636 434.384 448.716C434.12 448.796 433.868 448.932 433.628 449.124L433.64 448.404C433.776 448.236 433.932 448.1 434.108 447.996C434.284 447.892 434.484 447.812 434.708 447.756C434.932 447.7 435.192 447.672 435.488 447.672C436.064 447.672 436.552 447.792 436.952 448.032C437.352 448.272 437.656 448.596 437.864 449.004C438.08 449.412 438.188 449.868 438.188 450.372C438.188 450.9 438.056 451.372 437.792 451.788C437.536 452.204 437.18 452.532 436.724 452.772C436.268 453.004 435.748 453.12 435.164 453.12ZM433.628 449.124L433.016 448.512L433.388 444.672H434.42L434 448.62L433.628 449.124ZM433.616 445.68L433.388 444.672H437.768V445.68H433.616Z" fill="#3F3F3F"/>
<path d="M411.132 488L406.932 483.656L411.048 479.672H412.512L408.072 483.944V483.32L412.632 488H411.132ZM405.984 488V479.672H407.112V488H405.984ZM413.765 488V479.672H414.893V488H413.765ZM414.533 488V486.968H419.309V488H414.533ZM414.533 484.232V483.248H418.913V484.232H414.533ZM414.533 480.704V479.672H419.249V480.704H414.533ZM423.319 484.616L420.043 479.672H421.351L423.991 483.716H423.403L426.055 479.672H427.339L424.039 484.616H423.319ZM423.127 488V483.872H424.255V488H423.127ZM427.448 485.456V484.436H431.396V485.456H427.448ZM435.572 488.12C435.02 488.12 434.524 487.992 434.084 487.736C433.652 487.48 433.308 487.136 433.052 486.704C432.796 486.272 432.668 485.792 432.668 485.264C432.668 484.528 432.924 483.796 433.436 483.068L435.884 479.672H437.192L434.684 483.092L434.276 483.308C434.372 483.14 434.488 483 434.624 482.888C434.76 482.768 434.928 482.676 435.128 482.612C435.328 482.548 435.564 482.516 435.836 482.516C436.324 482.516 436.764 482.632 437.156 482.864C437.556 483.096 437.876 483.416 438.116 483.824C438.364 484.224 438.488 484.692 438.488 485.228C438.488 485.756 438.356 486.24 438.092 486.68C437.836 487.12 437.484 487.472 437.036 487.736C436.596 487.992 436.108 488.12 435.572 488.12ZM435.572 487.064C435.908 487.064 436.208 486.984 436.472 486.824C436.744 486.656 436.956 486.436 437.108 486.164C437.268 485.884 437.348 485.572 437.348 485.228C437.348 484.884 437.268 484.576 437.108 484.304C436.956 484.024 436.744 483.804 436.472 483.644C436.208 483.484 435.908 483.404 435.572 483.404C435.236 483.404 434.932 483.484 434.66 483.644C434.396 483.804 434.184 484.024 434.024 484.304C433.872 484.576 433.796 484.884 433.796 485.228C433.796 485.572 433.872 485.884 434.024 486.164C434.184 486.444 434.396 486.664 434.66 486.824C434.932 486.984 435.236 487.064 435.572 487.064Z" fill="#3F3F3F"/>
<path d="M411.132 521L406.932 516.656L411.048 512.672H412.512L408.072 516.944V516.32L412.632 521H411.132ZM405.984 521V512.672H407.112V521H405.984ZM413.765 521V512.672H414.893V521H413.765ZM414.533 521V519.968H419.309V521H414.533ZM414.533 517.232V516.248H418.913V517.232H414.533ZM414.533 513.704V512.672H419.249V513.704H414.533ZM423.319 517.616L420.043 512.672H421.351L423.991 516.716H423.403L426.055 512.672H427.339L424.039 517.616H423.319ZM423.127 521V516.872H424.255V521H423.127ZM427.448 518.456V517.436H431.396V518.456H427.448ZM432.942 521L436.062 513.332L437.178 513.368L434.13 521H432.942ZM431.634 513.68V512.672H437.178V513.368L436.686 513.68H431.634Z" fill="#3F3F3F"/>
<path d="M411.132 318L406.932 313.656L411.048 309.672H412.512L408.072 313.944V313.32L412.632 318H411.132ZM405.984 318V309.672H407.112V318H405.984ZM413.765 318V309.672H414.893V318H413.765ZM414.533 318V316.968H419.309V318H414.533ZM414.533 314.232V313.248H418.913V314.232H414.533ZM414.533 310.704V309.672H419.249V310.704H414.533ZM423.319 314.616L420.043 309.672H421.351L423.991 313.716H423.403L426.055 309.672H427.339L424.039 314.616H423.319ZM423.127 318V313.872H424.255V318H423.127ZM427.448 315.456V314.436H431.396V315.456H427.448ZM433.607 318V309.672H434.723V318H433.607ZM431.903 310.68V309.672H434.603V310.68H431.903Z" fill="#3F3F3F"/>
<path d="M411.132 351L406.932 346.656L411.048 342.672H412.512L408.072 346.944V346.32L412.632 351H411.132ZM405.984 351V342.672H407.112V351H405.984ZM413.765 351V342.672H414.893V351H413.765ZM414.533 351V349.968H419.309V351H414.533ZM414.533 347.232V346.248H418.913V347.232H414.533ZM414.533 343.704V342.672H419.249V343.704H414.533ZM423.319 347.616L420.043 342.672H421.351L423.991 346.716H423.403L426.055 342.672H427.339L424.039 347.616H423.319ZM423.127 351V346.872H424.255V351H423.127ZM427.448 348.456V347.436H431.396V348.456H427.448ZM432.244 350.316L435.316 347.076C435.628 346.756 435.872 346.48 436.048 346.248C436.224 346.008 436.348 345.788 436.42 345.588C436.5 345.388 436.54 345.18 436.54 344.964C436.54 344.54 436.404 344.208 436.132 343.968C435.86 343.728 435.508 343.608 435.076 343.608C434.652 343.608 434.28 343.712 433.96 343.92C433.64 344.12 433.356 344.432 433.108 344.856L432.316 344.196C432.644 343.652 433.04 343.244 433.504 342.972C433.968 342.692 434.504 342.552 435.112 342.552C435.624 342.552 436.068 342.652 436.444 342.852C436.828 343.052 437.124 343.332 437.332 343.692C437.54 344.052 437.644 344.472 437.644 344.952C437.644 345.296 437.6 345.604 437.512 345.876C437.432 346.148 437.284 346.428 437.068 346.716C436.86 346.996 436.568 347.332 436.192 347.724L433.708 350.28L432.244 350.316ZM432.244 351V350.316L433.204 349.992H437.836V351H432.244Z" fill="#3F3F3F"/>
<circle cx="222.5" cy="280.5" r="7.5" fill="#ECECEC"/>
<circle cx="221.5" cy="309.5" r="7.5" fill="#ECECEC"/>
<circle cx="682.5" cy="314.5" r="7.5" fill="#FFD7D3"/>
<circle cx="684" cy="246" r="10" fill="#1E3155"/>
<path d="M682.764 250.12C682.164 250.12 681.608 250.012 681.096 249.796C680.584 249.572 680.136 249.264 679.752 248.872C679.376 248.48 679.084 248.024 678.876 247.504C678.668 246.984 678.564 246.428 678.564 245.836C678.564 245.236 678.668 244.676 678.876 244.156C679.084 243.636 679.376 243.184 679.752 242.8C680.136 242.408 680.58 242.104 681.084 241.888C681.596 241.664 682.152 241.552 682.752 241.552C683.408 241.552 683.984 241.664 684.48 241.888C684.976 242.112 685.416 242.416 685.8 242.8L685.02 243.58C684.756 243.284 684.432 243.052 684.048 242.884C683.672 242.716 683.24 242.632 682.752 242.632C682.312 242.632 681.908 242.712 681.54 242.872C681.172 243.024 680.852 243.244 680.58 243.532C680.308 243.82 680.096 244.16 679.944 244.552C679.8 244.944 679.728 245.372 679.728 245.836C679.728 246.3 679.8 246.728 679.944 247.12C680.096 247.512 680.308 247.852 680.58 248.14C680.852 248.428 681.172 248.652 681.54 248.812C681.908 248.964 682.312 249.04 682.752 249.04C683.272 249.04 683.724 248.956 684.108 248.788C684.492 248.612 684.816 248.376 685.08 248.08L685.86 248.848C685.476 249.248 685.024 249.56 684.504 249.784C683.992 250.008 683.412 250.12 682.764 250.12ZM689.421 250.12C688.765 250.12 688.205 250 687.741 249.76C687.277 249.52 686.865 249.172 686.505 248.716L687.273 247.948C687.537 248.316 687.841 248.596 688.185 248.788C688.529 248.972 688.953 249.064 689.457 249.064C689.953 249.064 690.349 248.956 690.645 248.74C690.949 248.524 691.101 248.228 691.101 247.852C691.101 247.54 691.029 247.288 690.885 247.096C690.741 246.904 690.545 246.748 690.297 246.628C690.057 246.5 689.793 246.388 689.505 246.292C689.217 246.188 688.929 246.08 688.641 245.968C688.353 245.848 688.089 245.704 687.849 245.536C687.609 245.36 687.413 245.132 687.261 244.852C687.117 244.572 687.045 244.22 687.045 243.796C687.045 243.324 687.157 242.924 687.381 242.596C687.613 242.26 687.925 242.004 688.317 241.828C688.717 241.644 689.165 241.552 689.661 241.552C690.205 241.552 690.693 241.66 691.125 241.876C691.557 242.084 691.909 242.36 692.181 242.704L691.413 243.472C691.165 243.184 690.897 242.968 690.609 242.824C690.329 242.68 690.005 242.608 689.637 242.608C689.189 242.608 688.833 242.708 688.569 242.908C688.305 243.1 688.173 243.372 688.173 243.724C688.173 244.004 688.245 244.232 688.389 244.408C688.541 244.576 688.737 244.72 688.977 244.84C689.217 244.96 689.481 245.072 689.769 245.176C690.065 245.272 690.357 245.38 690.645 245.5C690.933 245.62 691.197 245.772 691.437 245.956C691.677 246.14 691.869 246.38 692.013 246.676C692.165 246.964 692.241 247.328 692.241 247.768C692.241 248.504 691.985 249.08 691.473 249.496C690.969 249.912 690.285 250.12 689.421 250.12Z" fill="white"/>
<path d="M242.188 253.12C241.524 253.12 240.932 252.976 240.412 252.688C239.9 252.392 239.496 251.988 239.2 251.476C238.904 250.964 238.756 250.384 238.756 249.736V244.564H240.388V249.784C240.388 250.16 240.464 250.484 240.616 250.756C240.776 251.028 240.992 251.24 241.264 251.392C241.544 251.536 241.852 251.608 242.188 251.608C242.532 251.608 242.836 251.536 243.1 251.392C243.364 251.24 243.572 251.028 243.724 250.756C243.884 250.484 243.964 250.164 243.964 249.796V244.564H245.608V249.748C245.608 250.396 245.46 250.976 245.164 251.488C244.868 251.992 244.464 252.392 243.952 252.688C243.448 252.976 242.86 253.12 242.188 253.12ZM250.952 253V249.676C250.952 249.332 250.844 249.052 250.628 248.836C250.412 248.62 250.132 248.512 249.788 248.512C249.564 248.512 249.364 248.56 249.188 248.656C249.012 248.752 248.872 248.888 248.768 249.064C248.672 249.24 248.624 249.444 248.624 249.676L248.012 249.364C248.012 248.908 248.108 248.512 248.3 248.176C248.5 247.832 248.772 247.564 249.116 247.372C249.468 247.18 249.864 247.084 250.304 247.084C250.728 247.084 251.108 247.192 251.444 247.408C251.78 247.616 252.044 247.892 252.236 248.236C252.428 248.572 252.524 248.936 252.524 249.328V253H250.952ZM247.052 253V247.204H248.624V253H247.052ZM254.572 253V244.792H256.144V253H254.572ZM253.216 248.584V247.204H257.5V248.584H253.216ZM258.384 253V247.204H259.968V253H258.384ZM259.176 246.268C258.92 246.268 258.708 246.184 258.54 246.016C258.372 245.84 258.288 245.624 258.288 245.368C258.288 245.12 258.372 244.908 258.54 244.732C258.708 244.556 258.92 244.468 259.176 244.468C259.44 244.468 259.652 244.556 259.812 244.732C259.98 244.908 260.064 245.12 260.064 245.368C260.064 245.624 259.98 245.84 259.812 246.016C259.652 246.184 259.44 246.268 259.176 246.268ZM262.212 253V244.792H263.784V253H262.212ZM260.856 248.584V247.204H265.14V248.584H260.856ZM266.024 253V244.324H267.596V253H266.024ZM271.761 253.12C271.153 253.12 270.613 252.992 270.141 252.736C269.669 252.472 269.293 252.112 269.013 251.656C268.741 251.2 268.605 250.68 268.605 250.096C268.605 249.52 268.737 249.008 269.001 248.56C269.273 248.104 269.641 247.744 270.105 247.48C270.569 247.208 271.085 247.072 271.653 247.072C272.213 247.072 272.705 247.2 273.129 247.456C273.561 247.704 273.897 248.048 274.137 248.488C274.385 248.92 274.509 249.412 274.509 249.964C274.509 250.068 274.501 250.176 274.485 250.288C274.477 250.392 274.457 250.512 274.425 250.648L269.553 250.66V249.484L273.693 249.472L273.057 249.964C273.041 249.62 272.977 249.332 272.865 249.1C272.761 248.868 272.605 248.692 272.397 248.572C272.197 248.444 271.949 248.38 271.653 248.38C271.341 248.38 271.069 248.452 270.837 248.596C270.605 248.732 270.425 248.928 270.297 249.184C270.177 249.432 270.117 249.728 270.117 250.072C270.117 250.424 270.181 250.732 270.309 250.996C270.445 251.252 270.637 251.452 270.885 251.596C271.133 251.732 271.421 251.8 271.749 251.8C272.045 251.8 272.313 251.752 272.553 251.656C272.793 251.552 273.001 251.4 273.177 251.2L274.101 252.124C273.821 252.452 273.477 252.7 273.069 252.868C272.669 253.036 272.233 253.12 271.761 253.12ZM277.929 253.12C277.393 253.12 276.913 252.988 276.489 252.724C276.065 252.46 275.729 252.1 275.481 251.644C275.241 251.188 275.121 250.676 275.121 250.108C275.121 249.532 275.241 249.016 275.481 248.56C275.729 248.104 276.061 247.744 276.477 247.48C276.901 247.216 277.385 247.084 277.929 247.084C278.345 247.084 278.717 247.168 279.045 247.336C279.381 247.504 279.649 247.74 279.849 248.044C280.057 248.34 280.169 248.676 280.185 249.052V251.116C280.169 251.492 280.061 251.832 279.861 252.136C279.661 252.44 279.393 252.68 279.057 252.856C278.721 253.032 278.345 253.12 277.929 253.12ZM278.193 251.668C278.489 251.668 278.745 251.604 278.961 251.476C279.185 251.34 279.357 251.156 279.477 250.924C279.605 250.684 279.669 250.408 279.669 250.096C279.669 249.792 279.605 249.524 279.477 249.292C279.357 249.052 279.185 248.868 278.961 248.74C278.745 248.604 278.493 248.536 278.205 248.536C277.909 248.536 277.649 248.604 277.425 248.74C277.209 248.876 277.037 249.06 276.909 249.292C276.789 249.524 276.729 249.792 276.729 250.096C276.729 250.408 276.789 250.684 276.909 250.924C277.037 251.156 277.213 251.34 277.437 251.476C277.661 251.604 277.913 251.668 278.193 251.668ZM281.145 253H279.585V251.44L279.837 250.024L279.573 248.632V244.324H281.145V253ZM288.096 253.12C287.68 253.12 287.304 253.036 286.968 252.868C286.632 252.692 286.364 252.456 286.164 252.16C285.964 251.864 285.856 251.524 285.84 251.14V249.088C285.856 248.704 285.964 248.364 286.164 248.068C286.372 247.764 286.64 247.524 286.968 247.348C287.304 247.172 287.68 247.084 288.096 247.084C288.632 247.084 289.112 247.216 289.536 247.48C289.96 247.744 290.292 248.104 290.532 248.56C290.78 249.016 290.904 249.532 290.904 250.108C290.904 250.676 290.78 251.188 290.532 251.644C290.292 252.1 289.96 252.46 289.536 252.724C289.112 252.988 288.632 253.12 288.096 253.12ZM284.88 255.424V247.204H286.452V248.728L286.188 250.132L286.44 251.536V255.424H284.88ZM287.82 251.668C288.108 251.668 288.364 251.604 288.588 251.476C288.812 251.34 288.984 251.156 289.104 250.924C289.232 250.684 289.296 250.408 289.296 250.096C289.296 249.792 289.232 249.524 289.104 249.292C288.984 249.052 288.812 248.868 288.588 248.74C288.364 248.604 288.108 248.536 287.82 248.536C287.54 248.536 287.288 248.604 287.064 248.74C286.84 248.868 286.664 249.052 286.536 249.292C286.416 249.524 286.356 249.792 286.356 250.096C286.356 250.408 286.416 250.684 286.536 250.924C286.664 251.156 286.836 251.34 287.052 251.476C287.276 251.604 287.532 251.668 287.82 251.668ZM291.934 253V247.204H293.506V253H291.934ZM293.506 249.796L292.894 249.388C292.966 248.676 293.174 248.116 293.518 247.708C293.862 247.292 294.358 247.084 295.006 247.084C295.286 247.084 295.538 247.132 295.762 247.228C295.986 247.316 296.19 247.464 296.374 247.672L295.39 248.8C295.302 248.704 295.194 248.632 295.066 248.584C294.946 248.536 294.806 248.512 294.646 248.512C294.31 248.512 294.034 248.62 293.818 248.836C293.61 249.044 293.506 249.364 293.506 249.796ZM299.487 253.12C298.903 253.12 298.375 252.988 297.903 252.724C297.439 252.452 297.067 252.088 296.787 251.632C296.515 251.168 296.379 250.652 296.379 250.084C296.379 249.516 296.515 249.008 296.787 248.56C297.059 248.104 297.431 247.744 297.903 247.48C298.375 247.208 298.899 247.072 299.475 247.072C300.067 247.072 300.595 247.208 301.059 247.48C301.531 247.744 301.903 248.104 302.175 248.56C302.447 249.008 302.583 249.516 302.583 250.084C302.583 250.652 302.447 251.168 302.175 251.632C301.903 252.088 301.531 252.452 301.059 252.724C300.595 252.988 300.071 253.12 299.487 253.12ZM299.475 251.656C299.771 251.656 300.031 251.592 300.255 251.464C300.487 251.328 300.663 251.144 300.783 250.912C300.911 250.672 300.975 250.4 300.975 250.096C300.975 249.792 300.911 249.524 300.783 249.292C300.655 249.06 300.479 248.88 300.255 248.752C300.031 248.616 299.771 248.548 299.475 248.548C299.187 248.548 298.931 248.616 298.707 248.752C298.483 248.88 298.307 249.06 298.179 249.292C298.051 249.524 297.987 249.792 297.987 250.096C297.987 250.4 298.051 250.672 298.179 250.912C298.307 251.144 298.483 251.328 298.707 251.464C298.931 251.592 299.187 251.656 299.475 251.656ZM303.127 255.568C302.711 255.568 302.367 255.5 302.095 255.364C301.815 255.228 301.563 255.036 301.339 254.788L302.335 253.792C302.431 253.912 302.535 253.996 302.647 254.044C302.751 254.1 302.875 254.128 303.019 254.128C303.219 254.128 303.387 254.068 303.523 253.948C303.659 253.828 303.727 253.652 303.727 253.42V247.204H305.299V253.396C305.299 253.852 305.199 254.24 304.999 254.56C304.807 254.888 304.547 255.136 304.219 255.304C303.899 255.48 303.535 255.568 303.127 255.568ZM304.531 246.268C304.275 246.268 304.063 246.184 303.895 246.016C303.727 245.84 303.643 245.624 303.643 245.368C303.643 245.12 303.727 244.908 303.895 244.732C304.063 244.556 304.275 244.468 304.531 244.468C304.795 244.468 305.007 244.556 305.167 244.732C305.335 244.908 305.419 245.12 305.419 245.368C305.419 245.624 305.335 245.84 305.167 246.016C305.007 246.184 304.795 246.268 304.531 246.268ZM309.449 253.12C308.841 253.12 308.301 252.992 307.829 252.736C307.357 252.472 306.981 252.112 306.701 251.656C306.429 251.2 306.293 250.68 306.293 250.096C306.293 249.52 306.425 249.008 306.689 248.56C306.961 248.104 307.329 247.744 307.793 247.48C308.257 247.208 308.773 247.072 309.341 247.072C309.901 247.072 310.393 247.2 310.817 247.456C311.249 247.704 311.585 248.048 311.825 248.488C312.073 248.92 312.197 249.412 312.197 249.964C312.197 250.068 312.189 250.176 312.173 250.288C312.165 250.392 312.145 250.512 312.113 250.648L307.241 250.66V249.484L311.381 249.472L310.745 249.964C310.729 249.62 310.665 249.332 310.553 249.1C310.449 248.868 310.293 248.692 310.085 248.572C309.885 248.444 309.637 248.38 309.341 248.38C309.029 248.38 308.757 248.452 308.525 248.596C308.293 248.732 308.113 248.928 307.985 249.184C307.865 249.432 307.805 249.728 307.805 250.072C307.805 250.424 307.869 250.732 307.997 250.996C308.133 251.252 308.325 251.452 308.573 251.596C308.821 251.732 309.109 251.8 309.437 251.8C309.733 251.8 310.001 251.752 310.241 251.656C310.481 251.552 310.689 251.4 310.865 251.2L311.789 252.124C311.509 252.452 311.165 252.7 310.757 252.868C310.357 253.036 309.921 253.12 309.449 253.12ZM315.905 253.12C315.313 253.12 314.781 252.988 314.309 252.724C313.837 252.46 313.465 252.1 313.193 251.644C312.921 251.188 312.785 250.676 312.785 250.108C312.785 249.532 312.921 249.016 313.193 248.56C313.465 248.104 313.837 247.744 314.309 247.48C314.789 247.208 315.321 247.072 315.905 247.072C316.361 247.072 316.781 247.156 317.165 247.324C317.549 247.492 317.881 247.732 318.161 248.044L317.153 249.064C317.001 248.896 316.817 248.768 316.601 248.68C316.393 248.592 316.161 248.548 315.905 248.548C315.617 248.548 315.357 248.616 315.125 248.752C314.901 248.88 314.721 249.06 314.585 249.292C314.457 249.516 314.393 249.784 314.393 250.096C314.393 250.4 314.457 250.672 314.585 250.912C314.721 251.144 314.901 251.328 315.125 251.464C315.357 251.592 315.617 251.656 315.905 251.656C316.169 251.656 316.405 251.612 316.613 251.524C316.829 251.428 317.013 251.292 317.165 251.116L318.185 252.136C317.889 252.456 317.549 252.7 317.165 252.868C316.781 253.036 316.361 253.12 315.905 253.12ZM319.833 253V244.792H321.405V253H319.833ZM318.477 248.584V247.204H322.761V248.584H318.477Z" fill="#140F36"/>
<path d="M224.66 523V516.26H225.6V523H224.66ZM222.3 516.92V516.06H227.95V516.92H222.3ZM229.792 523.1C229.318 523.1 228.892 522.993 228.512 522.78C228.132 522.56 227.832 522.263 227.612 521.89C227.392 521.517 227.282 521.093 227.282 520.62C227.282 520.153 227.388 519.733 227.602 519.36C227.822 518.987 228.115 518.693 228.482 518.48C228.855 518.26 229.272 518.15 229.732 518.15C230.172 518.15 230.558 518.25 230.892 518.45C231.232 518.65 231.495 518.927 231.682 519.28C231.875 519.633 231.972 520.033 231.972 520.48C231.972 520.547 231.968 520.62 231.962 520.7C231.955 520.773 231.942 520.86 231.922 520.96H227.912V520.21H231.442L231.112 520.5C231.112 520.18 231.055 519.91 230.942 519.69C230.828 519.463 230.668 519.29 230.462 519.17C230.255 519.043 230.005 518.98 229.712 518.98C229.405 518.98 229.135 519.047 228.902 519.18C228.668 519.313 228.488 519.5 228.362 519.74C228.235 519.98 228.172 520.263 228.172 520.59C228.172 520.923 228.238 521.217 228.372 521.47C228.505 521.717 228.695 521.91 228.942 522.05C229.188 522.183 229.472 522.25 229.792 522.25C230.058 522.25 230.302 522.203 230.522 522.11C230.748 522.017 230.942 521.877 231.102 521.69L231.682 522.28C231.455 522.547 231.175 522.75 230.842 522.89C230.515 523.03 230.165 523.1 229.792 523.1ZM234.973 523.1C234.54 523.1 234.146 522.993 233.793 522.78C233.44 522.56 233.16 522.263 232.953 521.89C232.753 521.517 232.653 521.097 232.653 520.63C232.653 520.163 232.753 519.743 232.953 519.37C233.16 518.997 233.436 518.7 233.783 518.48C234.136 518.26 234.533 518.15 234.973 518.15C235.333 518.15 235.653 518.227 235.933 518.38C236.22 518.527 236.45 518.733 236.623 519C236.796 519.26 236.893 519.563 236.913 519.91V521.34C236.893 521.68 236.796 521.983 236.623 522.25C236.456 522.517 236.23 522.727 235.943 522.88C235.663 523.027 235.34 523.1 234.973 523.1ZM235.123 522.25C235.57 522.25 235.93 522.1 236.203 521.8C236.476 521.493 236.613 521.103 236.613 520.63C236.613 520.303 236.55 520.02 236.423 519.78C236.303 519.533 236.13 519.343 235.903 519.21C235.676 519.07 235.413 519 235.113 519C234.813 519 234.546 519.07 234.313 519.21C234.086 519.35 233.906 519.543 233.773 519.79C233.646 520.03 233.583 520.307 233.583 520.62C233.583 520.94 233.646 521.223 233.773 521.47C233.906 521.71 234.09 521.9 234.323 522.04C234.556 522.18 234.823 522.25 235.123 522.25ZM236.553 523V521.72L236.723 520.56L236.553 519.41V518.25H237.463V523H236.553ZM238.773 523V518.25H239.673V523H238.773ZM241.983 523V520.13C241.983 519.777 241.873 519.5 241.653 519.3C241.44 519.093 241.17 518.99 240.843 518.99C240.623 518.99 240.427 519.037 240.253 519.13C240.08 519.223 239.94 519.353 239.833 519.52C239.727 519.687 239.673 519.887 239.673 520.12L239.303 519.94C239.303 519.58 239.38 519.267 239.533 519C239.693 518.733 239.91 518.527 240.183 518.38C240.457 518.227 240.763 518.15 241.103 518.15C241.437 518.15 241.737 518.223 242.003 518.37C242.277 518.517 242.49 518.723 242.643 518.99C242.803 519.257 242.883 519.573 242.883 519.94V523H241.983ZM245.193 523V520.13C245.193 519.777 245.083 519.5 244.863 519.3C244.65 519.093 244.383 518.99 244.063 518.99C243.843 518.99 243.643 519.037 243.463 519.13C243.29 519.223 243.15 519.353 243.043 519.52C242.937 519.687 242.883 519.887 242.883 520.12L242.373 519.94C242.393 519.573 242.49 519.26 242.663 519C242.843 518.733 243.073 518.527 243.353 518.38C243.633 518.227 243.94 518.15 244.273 518.15C244.62 518.15 244.93 518.223 245.203 518.37C245.477 518.517 245.693 518.723 245.853 518.99C246.02 519.257 246.103 519.577 246.103 519.95V523H245.193ZM247.328 520.88V520.03H250.618V520.88H247.328ZM251.937 523V518.25H252.837V523H251.937ZM255.147 523V520.13C255.147 519.777 255.037 519.5 254.817 519.3C254.604 519.093 254.334 518.99 254.007 518.99C253.787 518.99 253.591 519.037 253.417 519.13C253.244 519.223 253.104 519.353 252.997 519.52C252.891 519.687 252.837 519.887 252.837 520.12L252.467 519.94C252.467 519.58 252.544 519.267 252.697 519C252.857 518.733 253.074 518.527 253.347 518.38C253.621 518.227 253.927 518.15 254.267 518.15C254.601 518.15 254.901 518.223 255.167 518.37C255.441 518.517 255.654 518.723 255.807 518.99C255.967 519.257 256.047 519.573 256.047 519.94V523H255.147ZM258.357 523V520.13C258.357 519.777 258.247 519.5 258.027 519.3C257.814 519.093 257.547 518.99 257.227 518.99C257.007 518.99 256.807 519.037 256.627 519.13C256.454 519.223 256.314 519.353 256.207 519.52C256.101 519.687 256.047 519.887 256.047 520.12L255.537 519.94C255.557 519.573 255.654 519.26 255.827 519C256.007 518.733 256.237 518.527 256.517 518.38C256.797 518.227 257.104 518.15 257.437 518.15C257.784 518.15 258.094 518.223 258.367 518.37C258.641 518.517 258.857 518.723 259.017 518.99C259.184 519.257 259.267 519.577 259.267 519.95V523H258.357ZM262.512 523.1C262.079 523.1 261.685 522.993 261.332 522.78C260.979 522.56 260.699 522.263 260.492 521.89C260.292 521.517 260.192 521.097 260.192 520.63C260.192 520.163 260.292 519.743 260.492 519.37C260.699 518.997 260.975 518.7 261.322 518.48C261.675 518.26 262.072 518.15 262.512 518.15C262.872 518.15 263.192 518.227 263.472 518.38C263.759 518.527 263.989 518.733 264.162 519C264.335 519.26 264.432 519.563 264.452 519.91V521.34C264.432 521.68 264.335 521.983 264.162 522.25C263.995 522.517 263.769 522.727 263.482 522.88C263.202 523.027 262.879 523.1 262.512 523.1ZM262.662 522.25C263.109 522.25 263.469 522.1 263.742 521.8C264.015 521.493 264.152 521.103 264.152 520.63C264.152 520.303 264.089 520.02 263.962 519.78C263.842 519.533 263.669 519.343 263.442 519.21C263.215 519.07 262.952 519 262.652 519C262.352 519 262.085 519.07 261.852 519.21C261.625 519.35 261.445 519.543 261.312 519.79C261.185 520.03 261.122 520.307 261.122 520.62C261.122 520.94 261.185 521.223 261.312 521.47C261.445 521.71 261.629 521.9 261.862 522.04C262.095 522.18 262.362 522.25 262.662 522.25ZM264.092 523V521.72L264.262 520.56L264.092 519.41V518.25H265.002V523H264.092ZM269.672 523V520.23C269.672 519.87 269.559 519.573 269.332 519.34C269.106 519.107 268.812 518.99 268.452 518.99C268.212 518.99 267.999 519.043 267.812 519.15C267.626 519.257 267.479 519.403 267.372 519.59C267.266 519.777 267.212 519.99 267.212 520.23L266.842 520.02C266.842 519.66 266.922 519.34 267.082 519.06C267.242 518.78 267.466 518.56 267.752 518.4C268.039 518.233 268.362 518.15 268.722 518.15C269.082 518.15 269.399 518.24 269.672 518.42C269.952 518.6 270.172 518.837 270.332 519.13C270.492 519.417 270.572 519.723 270.572 520.05V523H269.672ZM266.312 523V518.25H267.212V523H266.312ZM273.811 523.1C273.378 523.1 272.984 522.993 272.631 522.78C272.278 522.56 271.998 522.263 271.791 521.89C271.591 521.517 271.491 521.097 271.491 520.63C271.491 520.163 271.591 519.743 271.791 519.37C271.998 518.997 272.274 518.7 272.621 518.48C272.974 518.26 273.371 518.15 273.811 518.15C274.171 518.15 274.491 518.227 274.771 518.38C275.058 518.527 275.288 518.733 275.461 519C275.634 519.26 275.731 519.563 275.751 519.91V521.34C275.731 521.68 275.634 521.983 275.461 522.25C275.294 522.517 275.068 522.727 274.781 522.88C274.501 523.027 274.178 523.1 273.811 523.1ZM273.961 522.25C274.408 522.25 274.768 522.1 275.041 521.8C275.314 521.493 275.451 521.103 275.451 520.63C275.451 520.303 275.388 520.02 275.261 519.78C275.141 519.533 274.968 519.343 274.741 519.21C274.514 519.07 274.251 519 273.951 519C273.651 519 273.384 519.07 273.151 519.21C272.924 519.35 272.744 519.543 272.611 519.79C272.484 520.03 272.421 520.307 272.421 520.62C272.421 520.94 272.484 521.223 272.611 521.47C272.744 521.71 272.928 521.9 273.161 522.04C273.394 522.18 273.661 522.25 273.961 522.25ZM275.391 523V521.72L275.561 520.56L275.391 519.41V518.25H276.301V523H275.391ZM279.581 525.09C279.095 525.09 278.661 525 278.281 524.82C277.908 524.64 277.608 524.387 277.381 524.06L277.961 523.47C278.155 523.717 278.385 523.903 278.651 524.03C278.918 524.163 279.235 524.23 279.601 524.23C280.088 524.23 280.471 524.1 280.751 523.84C281.038 523.587 281.181 523.243 281.181 522.81V521.63L281.341 520.56L281.181 519.5V518.25H282.081V522.81C282.081 523.263 281.975 523.66 281.761 524C281.555 524.34 281.261 524.607 280.881 524.8C280.508 524.993 280.075 525.09 279.581 525.09ZM279.581 522.92C279.148 522.92 278.758 522.817 278.411 522.61C278.071 522.403 277.801 522.12 277.601 521.76C277.401 521.393 277.301 520.983 277.301 520.53C277.301 520.077 277.401 519.673 277.601 519.32C277.801 518.96 278.071 518.677 278.411 518.47C278.758 518.257 279.148 518.15 279.581 518.15C279.955 518.15 280.285 518.223 280.571 518.37C280.858 518.517 281.085 518.723 281.251 518.99C281.425 519.25 281.518 519.557 281.531 519.91V521.17C281.511 521.517 281.415 521.823 281.241 522.09C281.075 522.35 280.848 522.553 280.561 522.7C280.275 522.847 279.948 522.92 279.581 522.92ZM279.761 522.07C280.055 522.07 280.311 522.007 280.531 521.88C280.758 521.753 280.931 521.577 281.051 521.35C281.171 521.117 281.231 520.847 281.231 520.54C281.231 520.233 281.168 519.967 281.041 519.74C280.921 519.507 280.751 519.327 280.531 519.2C280.311 519.067 280.051 519 279.751 519C279.451 519 279.188 519.067 278.961 519.2C278.735 519.327 278.555 519.507 278.421 519.74C278.295 519.967 278.231 520.23 278.231 520.53C278.231 520.83 278.295 521.097 278.421 521.33C278.555 521.563 278.735 521.747 278.961 521.88C279.195 522.007 279.461 522.07 279.761 522.07ZM285.602 523.1C285.129 523.1 284.702 522.993 284.322 522.78C283.942 522.56 283.642 522.263 283.422 521.89C283.202 521.517 283.092 521.093 283.092 520.62C283.092 520.153 283.199 519.733 283.412 519.36C283.632 518.987 283.926 518.693 284.292 518.48C284.666 518.26 285.082 518.15 285.542 518.15C285.982 518.15 286.369 518.25 286.702 518.45C287.042 518.65 287.306 518.927 287.492 519.28C287.686 519.633 287.782 520.033 287.782 520.48C287.782 520.547 287.779 520.62 287.772 520.7C287.766 520.773 287.752 520.86 287.732 520.96H283.722V520.21H287.252L286.922 520.5C286.922 520.18 286.866 519.91 286.752 519.69C286.639 519.463 286.479 519.29 286.272 519.17C286.066 519.043 285.816 518.98 285.522 518.98C285.216 518.98 284.946 519.047 284.712 519.18C284.479 519.313 284.299 519.5 284.172 519.74C284.046 519.98 283.982 520.263 283.982 520.59C283.982 520.923 284.049 521.217 284.182 521.47C284.316 521.717 284.506 521.91 284.752 522.05C284.999 522.183 285.282 522.25 285.602 522.25C285.869 522.25 286.112 522.203 286.332 522.11C286.559 522.017 286.752 521.877 286.912 521.69L287.492 522.28C287.266 522.547 286.986 522.75 286.652 522.89C286.326 523.03 285.976 523.1 285.602 523.1ZM290.774 523.1C290.334 523.1 289.94 522.993 289.594 522.78C289.247 522.56 288.97 522.263 288.764 521.89C288.564 521.517 288.464 521.097 288.464 520.63C288.464 520.163 288.564 519.743 288.764 519.37C288.97 518.997 289.247 518.7 289.594 518.48C289.94 518.26 290.334 518.15 290.774 518.15C291.127 518.15 291.447 518.227 291.734 518.38C292.02 518.527 292.25 518.733 292.424 519C292.604 519.26 292.704 519.563 292.724 519.91V521.34C292.704 521.68 292.607 521.983 292.434 522.25C292.26 522.517 292.03 522.727 291.744 522.88C291.457 523.027 291.134 523.1 290.774 523.1ZM290.924 522.25C291.224 522.25 291.484 522.18 291.704 522.04C291.93 521.9 292.107 521.71 292.234 521.47C292.36 521.223 292.424 520.943 292.424 520.63C292.424 520.303 292.357 520.02 292.224 519.78C292.097 519.54 291.92 519.35 291.694 519.21C291.474 519.07 291.214 519 290.914 519C290.614 519 290.35 519.07 290.124 519.21C289.897 519.35 289.717 519.543 289.584 519.79C289.457 520.03 289.394 520.307 289.394 520.62C289.394 520.94 289.457 521.223 289.584 521.47C289.717 521.71 289.897 521.9 290.124 522.04C290.357 522.18 290.624 522.25 290.924 522.25ZM293.274 523H292.364V521.72L292.534 520.56L292.364 519.41V515.86H293.274V523ZM299.164 523.1C298.804 523.1 298.477 523.027 298.184 522.88C297.897 522.727 297.667 522.517 297.494 522.25C297.321 521.983 297.224 521.68 297.204 521.34V519.91C297.224 519.563 297.321 519.26 297.494 519C297.674 518.733 297.907 518.527 298.194 518.38C298.487 518.227 298.811 518.15 299.164 518.15C299.597 518.15 299.987 518.26 300.334 518.48C300.687 518.7 300.964 518.997 301.164 519.37C301.364 519.743 301.464 520.163 301.464 520.63C301.464 521.097 301.364 521.517 301.164 521.89C300.964 522.263 300.687 522.56 300.334 522.78C299.987 522.993 299.597 523.1 299.164 523.1ZM296.664 524.99V518.25H297.564V519.5L297.394 520.65L297.564 521.81V524.99H296.664ZM299.014 522.25C299.314 522.25 299.577 522.18 299.804 522.04C300.031 521.9 300.211 521.71 300.344 521.47C300.477 521.223 300.544 520.94 300.544 520.62C300.544 520.307 300.477 520.027 300.344 519.78C300.211 519.533 300.031 519.343 299.804 519.21C299.577 519.07 299.317 519 299.024 519C298.724 519 298.461 519.07 298.234 519.21C298.007 519.343 297.831 519.533 297.704 519.78C297.577 520.027 297.514 520.31 297.514 520.63C297.514 520.943 297.574 521.223 297.694 521.47C297.821 521.71 297.997 521.9 298.224 522.04C298.457 522.18 298.721 522.25 299.014 522.25ZM302.484 523V518.25H303.384V523H302.484ZM303.384 520.29L303.044 520.14C303.044 519.533 303.184 519.05 303.464 518.69C303.744 518.33 304.148 518.15 304.674 518.15C304.914 518.15 305.131 518.193 305.324 518.28C305.518 518.36 305.698 518.497 305.864 518.69L305.274 519.3C305.174 519.193 305.064 519.117 304.944 519.07C304.824 519.023 304.684 519 304.524 519C304.191 519 303.918 519.107 303.704 519.32C303.491 519.533 303.384 519.857 303.384 520.29ZM308.512 523.1C308.045 523.1 307.625 522.99 307.252 522.77C306.878 522.55 306.582 522.253 306.362 521.88C306.142 521.5 306.032 521.077 306.032 520.61C306.032 520.15 306.142 519.737 306.362 519.37C306.582 518.997 306.878 518.7 307.252 518.48C307.625 518.26 308.045 518.15 308.512 518.15C308.972 518.15 309.388 518.26 309.762 518.48C310.142 518.693 310.442 518.987 310.662 519.36C310.882 519.733 310.992 520.15 310.992 520.61C310.992 521.077 310.882 521.5 310.662 521.88C310.442 522.253 310.142 522.55 309.762 522.77C309.388 522.99 308.972 523.1 308.512 523.1ZM308.512 522.23C308.812 522.23 309.078 522.16 309.312 522.02C309.545 521.88 309.728 521.69 309.862 521.45C309.995 521.203 310.062 520.923 310.062 520.61C310.062 520.303 309.992 520.03 309.852 519.79C309.718 519.55 309.535 519.363 309.302 519.23C309.075 519.09 308.812 519.02 308.512 519.02C308.212 519.02 307.945 519.09 307.712 519.23C307.478 519.363 307.295 519.55 307.162 519.79C307.028 520.03 306.962 520.303 306.962 520.61C306.962 520.923 307.028 521.203 307.162 521.45C307.295 521.69 307.478 521.88 307.712 522.02C307.945 522.16 308.212 522.23 308.512 522.23ZM311.406 525.09C311.099 525.09 310.842 525.04 310.636 524.94C310.422 524.84 310.232 524.697 310.066 524.51L310.646 523.92C310.739 524.033 310.842 524.117 310.956 524.17C311.062 524.223 311.192 524.25 311.346 524.25C311.546 524.25 311.719 524.187 311.866 524.06C312.012 523.94 312.086 523.757 312.086 523.51V518.25H312.986V523.5C312.986 523.847 312.912 524.137 312.766 524.37C312.619 524.603 312.426 524.78 312.186 524.9C311.946 525.027 311.686 525.09 311.406 525.09ZM312.546 517.3C312.386 517.3 312.252 517.247 312.146 517.14C312.039 517.027 311.986 516.887 311.986 516.72C311.986 516.56 312.039 516.427 312.146 516.32C312.252 516.207 312.386 516.15 312.546 516.15C312.712 516.15 312.849 516.207 312.956 516.32C313.062 516.427 313.116 516.56 313.116 516.72C313.116 516.887 313.062 517.027 312.956 517.14C312.849 517.247 312.712 517.3 312.546 517.3ZM316.511 523.1C316.037 523.1 315.611 522.993 315.231 522.78C314.851 522.56 314.551 522.263 314.331 521.89C314.111 521.517 314.001 521.093 314.001 520.62C314.001 520.153 314.107 519.733 314.321 519.36C314.541 518.987 314.834 518.693 315.201 518.48C315.574 518.26 315.991 518.15 316.451 518.15C316.891 518.15 317.277 518.25 317.611 518.45C317.951 518.65 318.214 518.927 318.401 519.28C318.594 519.633 318.691 520.033 318.691 520.48C318.691 520.547 318.687 520.62 318.681 520.7C318.674 520.773 318.661 520.86 318.641 520.96H314.631V520.21H318.161L317.831 520.5C317.831 520.18 317.774 519.91 317.661 519.69C317.547 519.463 317.387 519.29 317.181 519.17C316.974 519.043 316.724 518.98 316.431 518.98C316.124 518.98 315.854 519.047 315.621 519.18C315.387 519.313 315.207 519.5 315.081 519.74C314.954 519.98 314.891 520.263 314.891 520.59C314.891 520.923 314.957 521.217 315.091 521.47C315.224 521.717 315.414 521.91 315.661 522.05C315.907 522.183 316.191 522.25 316.511 522.25C316.777 522.25 317.021 522.203 317.241 522.11C317.467 522.017 317.661 521.877 317.821 521.69L318.401 522.28C318.174 522.547 317.894 522.75 317.561 522.89C317.234 523.03 316.884 523.1 316.511 523.1ZM321.842 523.1C321.375 523.1 320.952 522.99 320.572 522.77C320.199 522.55 319.902 522.253 319.682 521.88C319.469 521.5 319.362 521.08 319.362 520.62C319.362 520.153 319.469 519.733 319.682 519.36C319.902 518.987 320.199 518.693 320.572 518.48C320.952 518.26 321.375 518.15 321.842 518.15C322.209 518.15 322.549 518.22 322.862 518.36C323.175 518.493 323.445 518.69 323.672 518.95L323.072 519.55C322.925 519.377 322.745 519.247 322.532 519.16C322.325 519.067 322.095 519.02 321.842 519.02C321.542 519.02 321.275 519.09 321.042 519.23C320.809 519.363 320.625 519.55 320.492 519.79C320.359 520.03 320.292 520.307 320.292 520.62C320.292 520.933 320.359 521.21 320.492 521.45C320.625 521.69 320.809 521.88 321.042 522.02C321.275 522.16 321.542 522.23 321.842 522.23C322.095 522.23 322.325 522.187 322.532 522.1C322.745 522.007 322.929 521.873 323.082 521.7L323.672 522.3C323.452 522.553 323.182 522.75 322.862 522.89C322.549 523.03 322.209 523.1 321.842 523.1ZM325.236 523V516.26H326.136V523H325.236ZM324.066 519.07V518.25H327.306V519.07H324.066Z" fill="#5F5F5F"/>
<circle cx="682.5" cy="347.5" r="7.5" fill="#CEE3FD"/>
<circle cx="682.5" cy="483.5" r="7.5" fill="#CEE3FD"/>
<circle cx="682.5" cy="382.5" r="7.5" fill="#CEE3FD"/>
<circle cx="682.5" cy="415.5" r="7.5" fill="#FDDECE"/>
<circle cx="682.5" cy="517.5" r="7.5" fill="#FDDECE"/>
<circle cx="682.5" cy="448.5" r="7.5" fill="#FFD6D2"/>
<circle cx="221.5" cy="338.5" r="7.5" fill="#ECECEC"/>
<circle cx="221.5" cy="367.5" r="7.5" fill="#ECECEC"/>
<circle cx="222.5" cy="396.5" r="7.5" fill="#ECECEC"/>
<circle cx="222.5" cy="425.5" r="7.5" fill="#ECECEC"/>
<circle cx="222.5" cy="452.5" r="7.5" fill="#ECECEC"/>
<rect x="243" y="277" width="80" height="6" rx="3" fill="#ECECEC"/>
<rect x="483" y="277" width="97" height="6" rx="3" fill="#ECECEC"/>
<rect x="409" y="277" width="51" height="6" rx="3" fill="#ECECEC"/>
<rect x="605" y="277" width="51" height="6" rx="3" fill="#ECECEC"/>
<rect x="604" y="308" width="51" height="13" rx="3" fill="#ECECEC"/>
<rect x="604" y="342" width="51" height="13" rx="3" fill="#ECECEC"/>
<rect x="604" y="376" width="51" height="13" rx="3" fill="#CCE0FE"/>
<rect x="604" y="410" width="51" height="13" rx="3" fill="#CCE0FE"/>
<rect x="604" y="443" width="51" height="13" rx="3" fill="#CCE0FE"/>
<rect x="604" y="476" width="51" height="13" rx="3" fill="#BEF5DF"/>
<rect x="604" y="510" width="51" height="13" rx="3" fill="#BEF5DF"/>
<rect x="373" y="277" width="11" height="6" rx="3" fill="#ECECEC"/>
<rect x="673" y="277" width="19" height="6" rx="3" fill="#ECECEC"/>
<rect x="483" y="311" width="97" height="6" rx="3" fill="#ECECEC"/>
<rect x="483" y="379" width="97" height="6" rx="3" fill="#ECECEC"/>
<rect x="483" y="411" width="97" height="6" rx="3" fill="#ECECEC"/>
<rect x="483" y="445" width="97" height="6" rx="3" fill="#ECECEC"/>
<rect x="483" y="479" width="97" height="6" rx="3" fill="#ECECEC"/>
<rect x="483" y="513" width="97" height="6" rx="3" fill="#ECECEC"/>
<rect x="483" y="345" width="55" height="6" rx="3" fill="#ECECEC"/>
<rect x="360" y="240" width="144" height="14" rx="7" fill="#ECECEC"/>
<rect x="243" y="306" width="80" height="6" rx="3" fill="#ECECEC"/>
<rect x="243" y="336" width="80" height="6" rx="3" fill="#ECECEC"/>
<rect x="243" y="364" width="80" height="6" rx="3" fill="#ECECEC"/>
<rect x="243" y="394" width="80" height="6" rx="3" fill="#ECECEC"/>
<rect x="243" y="422" width="80" height="6" rx="3" fill="#ECECEC"/>
<rect x="243" y="451" width="80" height="6" rx="3" fill="#ECECEC"/>
<rect x="372" y="307" width="12" height="12" rx="4" fill="#569FFF"/>
<rect x="212" y="239" width="19" height="19" rx="4" fill="#569FFF"/>
<rect x="372" y="342" width="12" height="12" rx="4" fill="#569FFF"/>
<rect x="372" y="376" width="12" height="12" rx="4" fill="#569FFF"/>
<rect x="372" y="410" width="12" height="12" rx="4" fill="#569FFF"/>
<rect x="372" y="444" width="12" height="12" rx="4" fill="#569FFF"/>
<rect x="372" y="476" width="12" height="12" rx="4" fill="#569FFF"/>
<rect x="372" y="510" width="12" height="12" rx="4" fill="#569FFF"/>
<line x1="345.5" y1="223" x2="345.5" y2="544" stroke="#ECECEC"/>
<line x1="399.5" y1="264" x2="399.5" y2="529" stroke="#ECECEC"/>
<line x1="471.5" y1="264" x2="471.5" y2="529" stroke="#ECECEC"/>
<line x1="593.5" y1="264" x2="593.5" y2="529" stroke="#ECECEC"/>
<line x1="665.5" y1="264" x2="665.5" y2="529" stroke="#ECECEC"/>
<line x1="360" y1="297.5" x2="697" y2="297.5" stroke="#ECECEC"/>
<line x1="360" y1="331.5" x2="697" y2="331.5" stroke="#ECECEC"/>
<line x1="360" y1="364.5" x2="697" y2="364.5" stroke="#ECECEC"/>
<line x1="360" y1="399.5" x2="697" y2="399.5" stroke="#ECECEC"/>
<line x1="360" y1="432.5" x2="697" y2="432.5" stroke="#ECECEC"/>
<line x1="360" y1="465.5" x2="697" y2="465.5" stroke="#ECECEC"/>
<line x1="360" y1="500.5" x2="697" y2="500.5" stroke="#ECECEC"/>
</g>
</g>
<defs>
<filter id="filter0_d_9_1313" x="186" y="214" width="537" height="340" filterUnits="userSpaceOnUse" color-interpolation-filters="sRGB">
<feFlood flood-opacity="0" result="BackgroundImageFix"/>
<feColorMatrix in="SourceAlpha" type="matrix" values="0 0 0 0 0 0 0 0 0 0 0 0 0 0 0 0 0 0 127 0" result="hardAlpha"/>
<feOffset dy="1"/>
<feGaussianBlur stdDeviation="4.5"/>
<feComposite in2="hardAlpha" operator="out"/>
<feColorMatrix type="matrix" values="0 0 0 0 0 0 0 0 0 0 0 0 0 0 0 0 0 0 0.19 0"/>
<feBlend mode="normal" in2="BackgroundImageFix" result="effect1_dropShadow_9_1313"/>
<feBlend mode="normal" in="SourceGraphic" in2="effect1_dropShadow_9_1313" result="shape"/>
</filter>
<clipPath id="clip0_9_1313">
<path d="M195 234C195 227.373 200.373 222 207 222H702C708.628 222 714 227.373 714 234V532C714 538.627 708.628 544 702 544H207C200.373 544 195 538.627 195 532V234Z" fill="white"/>
</clipPath>
</defs>
</svg>
